<svg width="32" height="32" viewBox="0 0 32 32" fill="none" xmlns="http://www.w3.org/2000/svg">
<path d="M5.5 26C6.26056 26 7.00119 25.8347 7.6875 25.5171V30.75H2.6875C2.34238 30.75 2.0625 31.0298 2.0625 31.375C2.0625 31.7202 2.34238 32 2.6875 32H29.3125C29.6576 32 29.9375 31.7202 29.9375 31.375C29.9375 31.0298 29.6576 30.75 29.3125 30.75H24.3125V25.5171C24.9988 25.8347 25.7394 26 26.5 26C29.4813 26 32 23.5672 32 20.6875C32 18.3908 30.3314 16.2866 28.0444 15.6039C27.9119 14.1587 27.0614 12.8669 25.8006 12.1691C26.0572 11.4784 26.1875 10.7514 26.1875 10C26.1875 9.4845 26.1243 8.97225 25.9997 8.47731C25.9153 8.14256 25.5755 7.9395 25.241 8.02381C24.9063 8.10806 24.7033 8.44775 24.7875 8.7825C24.887 9.17775 24.9375 9.58731 24.9375 10C24.9375 10.5988 24.8343 11.1777 24.6311 11.7275C24.3226 11.6596 24.0071 11.625 23.6875 11.625C21.4085 11.625 19.5309 13.3764 19.3302 15.604C18.2556 15.9249 17.3176 16.5597 16.625 17.3809V12.2696L20.2062 10.5642C20.5179 10.4158 20.6502 10.0429 20.5018 9.73125C20.3534 9.41956 19.9803 9.28725 19.6688 9.43569L16.625 10.8851V6.25C16.625 5.90481 16.3451 5.625 16 5.625C15.6549 5.625 15.375 5.90481 15.375 6.25V9.01013L12.3313 7.56069C12.0195 7.41237 11.6466 7.54456 11.4983 7.85625C11.3498 8.16788 11.4821 8.54088 11.7938 8.68925L15.3751 10.3946V17.3809C14.6825 16.5597 13.7445 15.9249 12.6698 15.604C12.4691 13.3764 10.5915 11.625 8.3125 11.625C7.993 11.625 7.67737 11.6596 7.36888 11.7275C7.16569 11.1777 7.0625 10.5988 7.0625 10C7.0625 7.52487 8.84681 5.45531 11.3052 5.07906C11.5683 5.03881 11.7771 4.83631 11.8253 4.5745C12.1687 2.71031 14.0025 1.25 16 1.25C17.9975 1.25 19.8313 2.71031 20.1747 4.5745C20.2229 4.83625 20.4317 5.03881 20.6948 5.07906C20.9505 5.11819 21.2049 5.17756 21.4511 5.25544C21.7802 5.35969 22.1314 5.17731 22.2356 4.84819C22.3397 4.51912 22.1574 4.16787 21.8283 4.06375C21.6569 4.0095 21.4823 3.96244 21.306 3.923C20.6767 1.65869 18.4718 0 16 0C13.5282 0 11.3233 1.65875 10.694 3.923C7.8675 4.55694 5.8125 7.05638 5.8125 10C5.8125 10.7514 5.94281 11.4784 6.19938 12.169C4.93863 12.8669 4.08806 14.1586 3.95563 15.6039C1.66856 16.2866 0 18.3908 0 20.6875C0 23.5672 2.51869 26 5.5 26ZM8.9375 25.5171C9.62381 25.8347 10.3644 26 11.125 26C12.8154 26 14.3568 25.2177 15.375 24.0154V30.75H8.9375V25.5171ZM16.625 30.75V24.0154C17.6432 25.2177 19.1846 26 20.875 26C21.6356 26 22.3762 25.8347 23.0625 25.5171V30.75H16.625ZM20.07 16.7065C20.3724 16.6458 20.6176 16.3659 20.5626 15.9721C20.5778 14.2617 21.9737 12.875 23.6875 12.875C25.4137 12.875 26.7971 14.2732 26.8124 15.9721C26.7579 16.3629 26.9996 16.6452 27.305 16.7065C29.269 17.101 30.75 18.8125 30.75 20.6875C30.75 22.8896 28.8037 24.75 26.5 24.75C25.7249 24.75 24.9746 24.5229 24.3125 24.0915V22.0112L27.717 20.309C28.0257 20.1546 28.1509 19.7792 27.9966 19.4704C27.8421 19.1617 27.4665 19.0365 27.1581 19.1909L24.3125 20.6138C24.3125 20.0874 24.3125 16.8018 24.3125 16C24.3125 15.6548 24.0326 15.375 23.6875 15.375C23.3424 15.375 23.0625 15.6548 23.0625 16V18.2411L22.2544 17.433C22.0103 17.189 21.6147 17.189 21.3705 17.433C21.1264 17.6771 21.1264 18.0728 21.3705 18.3169L23.0625 20.0089V24.0915C22.4004 24.5229 21.6501 24.75 20.875 24.75C18.5713 24.75 16.625 22.8896 16.625 20.6875C16.625 18.8125 18.106 17.101 20.07 16.7065ZM4.695 16.7065C4.99706 16.6458 5.24262 16.3665 5.18762 15.9721C5.20288 14.2731 6.58488 12.875 8.3125 12.875C10.0262 12.875 11.4222 14.2617 11.4374 15.9721C11.3828 16.3635 11.6253 16.6453 11.93 16.7065C13.894 17.101 15.375 18.8125 15.375 20.6875C15.375 22.8896 13.4287 24.75 11.125 24.75C10.3499 24.75 9.59962 24.5229 8.9375 24.0915V23.7589L10.6294 22.067C10.8735 21.8229 10.8735 21.4272 10.6294 21.1831C10.3853 20.9391 9.98969 20.9391 9.7455 21.1831L8.9375 21.9911V17.875C8.9375 17.5298 8.65763 17.25 8.3125 17.25C7.96737 17.25 7.6875 17.5298 7.6875 17.875V20.6138L4.842 19.191C4.53325 19.0366 4.15788 19.1618 4.0035 19.4705C3.84912 19.7793 3.97425 20.1547 4.28306 20.3091L7.6875 22.0112V24.0914C7.02537 24.5229 6.27513 24.75 5.5 24.75C3.19631 24.75 1.25 22.8896 1.25 20.6875C1.25 18.8125 2.731 17.101 4.695 16.7065Z" fill="white"/>
</svg>
