<svg width="32" height="28" viewBox="0 0 32 28" fill="none" xmlns="http://www.w3.org/2000/svg">
<path d="M26.375 26.3682H27.3125V27.3057H26.375V26.3682Z" fill="white"/>
<path d="M31.0626 26.3686V16.9936H27.7813V10.8998C27.7813 10.1244 27.1505 9.49352 26.3751 9.49352H23.0938V3.85507L25.2232 3.31126V0L2.38625 5.83214V9.14339L4.51557 8.59958V15.1185H0.937502V26.3685H0V27.3061H25.4376V26.3685H19.3438V19.806H27.7813V17.931H30.1251V26.3685H28.2501V27.3061H32V26.3685H31.0626V26.3686ZM13.2346 5.40539L3.32376 7.93645V6.56026L24.2857 1.20694V2.58313L14.1428 5.17345L14.3748 6.08176L22.1563 4.09451V9.49352H17.4688V16.9935H10.9063V15.1185H5.45314V8.36027L13.4666 6.31376L13.2346 5.40539ZM19.3438 18.8686H9.03127V17.9311H19.3438V18.8686ZM1.875 16.0561H9.96877V16.9936H8.09377V19.8061H9.03127V26.3686H8.09377V20.7436H2.81244V26.3686H1.875V16.0561ZM7.15626 23.5561V24.4936H3.74995V23.5561H7.15626ZM3.74995 22.6186V21.6811H7.15626V22.6186H3.74995ZM7.15626 25.4311V26.3686H3.74995V25.4311H7.15626ZM16.0625 26.3686H12.3125V22.1499H16.0625V26.3686ZM18.4063 26.3686H17V21.2124H11.375V26.3686H9.96871V19.8061H18.4062V26.3686H18.4063ZM26.8438 18.8686H20.2813V16.9936H18.4063V10.4311H26.3751C26.6335 10.4311 26.8438 10.6413 26.8438 10.8998V18.8686Z" fill="white"/>
<path d="M19.8125 15.5869H25.4375V11.8369H19.8125V15.5869ZM20.75 12.7744H24.5V14.6494H20.75V12.7744Z" fill="white"/>
<path d="M16.0627 9.49316H6.85938V13.7119H16.0628V9.49316H16.0627ZM7.79688 10.4307H10.9923V12.7744H7.79688V10.4307ZM15.1252 12.7744H11.9298V10.4306H15.1252V12.7744Z" fill="white"/>
<path d="M28.7188 21.2119H20.75V24.9619H28.7188V21.2119ZM21.6875 22.1494H24.2656V24.0244H21.6875V22.1494ZM27.7813 24.0244H25.2031V22.1494H27.7813V24.0244Z" fill="white"/>
<path d="M20.2812 5.55566H21.2188V6.49317H20.2812V5.55566Z" fill="white"/>
<path d="M20.2812 7.43066H21.2188V8.36817H20.2812V7.43066Z" fill="white"/>
</svg>
