<svg width="24" height="24" viewBox="0 0 24 24" fill="none" xmlns="http://www.w3.org/2000/svg">
<path d="M7.6384 10.2373H6.55895C6.4234 10.2373 6.29338 10.2968 6.19765 10.4027C6.10192 10.5085 6.04839 10.6521 6.04883 10.8016L6.05635 15.0745C6.05635 15.3852 6.28475 15.637 6.56647 15.637C6.84819 15.637 7.07659 15.3852 7.07659 15.0745V13.7772C7.28516 13.776 7.50798 13.775 7.6384 13.775C8.53472 13.775 9.26396 12.9815 9.26396 12.0061C9.26396 11.0308 8.53472 10.2373 7.6384 10.2373ZM7.6384 12.65C7.50683 12.65 7.28319 12.651 7.0738 12.6522C7.07271 12.4127 7.07176 12.1548 7.07176 12.0061C7.07176 11.8789 7.07118 11.6126 7.07057 11.3623H7.63837C7.96648 11.3623 8.24368 11.6571 8.24368 12.0061C8.24368 12.3552 7.96651 12.65 7.6384 12.65Z" fill="#FFC50E"/>
<path d="M11.977 10.2373H10.9115C10.776 10.2373 10.6461 10.2967 10.5504 10.4024C10.4547 10.5081 10.4011 10.6515 10.4014 10.8009C10.4014 10.8009 10.409 14.9351 10.409 14.9501C10.4095 15.0993 10.4637 15.2422 10.5597 15.3473C10.6553 15.4519 10.7845 15.5106 10.9191 15.5106H10.921C10.9533 15.5104 11.7132 15.5072 12.0171 15.5014C13.1697 15.4792 14.0063 14.3742 14.0063 12.8739C14.0063 11.2969 13.1908 10.2373 11.977 10.2373ZM11.9992 14.3766C11.8671 14.3791 11.6398 14.3812 11.4275 14.3827C11.4261 13.8941 11.4233 11.8701 11.4225 11.3623H11.977C12.9133 11.3623 12.9861 12.5193 12.9861 12.874C12.9861 13.6124 12.6809 14.3634 11.9992 14.3766Z" fill="#FFC50E"/>
<path d="M17.3687 11.3188C17.6504 11.3188 17.8788 11.067 17.8788 10.7563C17.8788 10.4457 17.6504 10.1938 17.3687 10.1938H15.8089C15.5272 10.1938 15.2988 10.4457 15.2988 10.7563V14.9998C15.2988 15.3104 15.5272 15.5623 15.8089 15.5623C16.0907 15.5623 16.3191 15.3104 16.3191 14.9998V13.4004H17.2448C17.5265 13.4004 17.7549 13.1485 17.7549 12.8379C17.7549 12.5272 17.5265 12.2754 17.2448 12.2754H16.3191V11.3188H17.3687Z" fill="#FFC50E"/>
<path d="M18.8697 7.8374H18.4956V7.67694C18.4956 6.95386 18.2472 6.26668 17.796 5.7419L15.6772 3.27736C15.1977 2.71974 14.5231 2.3999 13.8262 2.3999H7.03492C6.19107 2.3999 5.50455 3.15691 5.50455 4.0874V7.8374H5.13046C4.28662 7.8374 3.6001 8.59441 3.6001 9.5249V16.2749C3.6001 17.2054 4.28662 17.9624 5.13046 17.9624H5.50455V19.9124C5.50455 20.8429 6.19107 21.5999 7.03492 21.5999H16.9653C17.8091 21.5999 18.4956 20.8429 18.4956 19.9124V17.9624H18.8697C19.7136 17.9624 20.4001 17.2054 20.4001 16.2749V9.5249C20.4001 8.59441 19.7136 7.8374 18.8697 7.8374ZM6.52479 4.0874C6.52479 3.77724 6.75363 3.5249 7.03492 3.5249H13.8262C14.2443 3.5249 14.6491 3.71679 14.9368 4.0514L17.0556 6.51594C17.3263 6.83079 17.4754 7.2431 17.4754 7.67694V7.8374H6.52479V4.0874ZM17.4754 19.9124C17.4754 20.2226 17.2466 20.4749 16.9653 20.4749H7.03492C6.75363 20.4749 6.52479 20.2226 6.52479 19.9124V17.9624H17.4754V19.9124ZM19.3799 16.2749C19.3799 16.5851 19.151 16.8374 18.8697 16.8374H5.13046C4.84918 16.8374 4.62034 16.5851 4.62034 16.2749V9.5249C4.62034 9.21474 4.84918 8.9624 5.13046 8.9624H18.8697C19.151 8.9624 19.3799 9.21474 19.3799 9.5249V16.2749Z" fill="#FFC50E"/>
</svg>
